<?xml version="1.0" encoding="UTF-8"?>
<svg version="1.1" id="Layer_1" xmlns="http://www.w3.org/2000/svg" xmlns:xlink="http://www.w3.org/1999/xlink" x="0px" y="0px" width="100%" viewBox="0 0 1080 1080" enable-background="new 0 0 1080 1080" xml:space="preserve" style="background: transparent;">

<path fill="#CA3601" opacity="1.000000" stroke="none" d=" M745.791626,525.069519   C754.553284,537.239624 763.876953,549.050415 771.942505,561.665588   C783.537292,579.800720 793.171509,599.055359 800.115356,619.492493   C803.816833,630.386719 807.180359,641.435181 809.924561,652.603638   C812.483154,663.016357 813.566650,673.790588 816.106689,684.208923   C820.519104,702.307495 819.946228,720.668335 819.746338,738.997925   C819.609253,751.570007 819.167969,764.193359 817.821289,776.681580   C816.597595,788.029602 814.827148,799.466675 811.756348,810.432922   C807.112427,827.017151 801.917297,843.542175 795.512939,859.513550   C787.968201,878.329102 778.537781,896.434631 767.100769,913.182800   C758.044983,926.443909 747.866150,939.053040 737.174011,951.049622   C726.369934,963.171997 714.583862,974.466064 702.708435,985.567139   C696.511536,991.359985 689.419250,996.290222 682.336426,1001.018311   C670.787415,1008.727539 659.128540,1016.322510 647.107239,1023.257202   C638.439697,1028.257080 629.292542,1032.556274 620.024231,1036.349487   C609.354919,1040.715942 598.402222,1044.449951 587.409790,1047.946777   C579.682434,1050.404785 571.747498,1052.330444 563.790344,1053.918579   C550.846741,1056.501831 537.814941,1058.647949 524.804626,1060.887207   C523.020691,1061.194092 521.146118,1060.996094 519.313538,1060.996704   C502.480255,1061.002197 485.619843,1061.587158 468.822418,1060.811035   C455.742584,1060.206665 442.686890,1058.255249 429.722382,1056.245117   C419.607269,1054.676636 409.542694,1052.492432 399.656403,1049.834961   C392.496643,1047.910278 385.659760,1044.778442 378.692566,1042.148682   C377.022064,1041.518066 375.403107,1040.750000 373.764862,1040.035156   C363.776154,1035.676147 353.524048,1031.825439 343.867035,1026.825562   C331.444153,1020.393433 319.278992,1013.389282 307.427429,1005.954712   C299.859161,1001.207092 292.899902,995.429871 285.955994,989.761047   C277.674561,983.000366 269.341034,976.232300 261.692566,968.786926   C253.463486,960.776184 245.713623,952.220703 238.294724,943.446350   C232.056976,936.069031 226.286255,928.244690 220.871597,920.237610   C214.927338,911.447571 209.234695,902.436401 204.148254,893.130310   C198.092087,882.049866 192.058182,870.849426 187.374573,859.156250   C182.421127,846.789368 179.039902,833.790405 175.027420,821.050110   C173.258392,815.433167 171.147217,809.865601 170.036758,804.112427   C168.022034,793.674438 165.866394,783.165710 165.163361,772.593872   C163.899261,753.584595 163.363098,734.510437 163.134262,715.456116   C163.027710,706.583191 163.737061,697.592285 165.172989,688.834656   C167.276062,676.008179 169.753845,663.175049 173.203369,650.656494   C176.682678,638.029907 181.672394,625.826355 185.767685,613.361023   C191.738724,595.186157 200.436935,578.252625 210.624756,562.254578   C219.896484,547.695190 230.378555,533.842224 241.119797,520.306946   C247.657578,512.068542 255.723312,505.047150 263.055695,497.433807   C274.169678,485.894104 286.586487,475.946381 299.611053,466.646301   C312.605896,457.367493 325.784821,448.504517 340.342377,441.783234   C347.079590,438.672607 353.520111,434.919434 360.096313,431.459717   C360.824249,431.076721 361.526825,430.613037 362.296478,430.346741   C373.290375,426.543274 384.207611,422.487854 395.318420,419.060944   C407.121338,415.420563 418.954803,411.530182 431.061981,409.324768   C442.843933,407.178589 454.972168,406.630341 466.979950,406.112335   C478.957550,405.595581 490.974335,405.987091 503.871826,405.970459   C507.409943,406.281189 510.044678,406.822052 512.691162,406.887390   C532.767212,407.383270 552.348083,411.063232 571.748840,415.923767   C615.280762,426.830048 654.831665,445.950836 690.451965,473.271820   C705.803223,485.046265 720.204529,497.794434 733.019165,512.334045   C736.698730,516.508850 741.013550,520.123718 745.037109,523.995361   C745.037109,523.995361 744.991394,524.008301 745.078369,524.202393   C745.326294,524.665283 745.535034,524.889648 745.791626,525.069519  M358.992889,955.474060   C365.142395,958.783203 371.206787,962.263306 377.454956,965.374207   C424.789917,988.941772 474.779968,996.367676 527.021423,989.609863   C558.416199,985.548645 588.003540,975.664856 615.674744,960.436462   C648.332520,942.463806 675.908020,918.518066 698.422729,888.669861   C721.789856,857.691528 737.291016,823.167480 745.111023,785.337402   C750.909973,757.283875 751.785461,728.883545 748.113403,700.357178   C743.719421,666.222534 733.080383,634.236877 715.882202,604.467651   C694.581543,567.597229 665.941956,537.692383 629.997620,514.822083   C595.117371,492.628723 557.009583,480.106567 515.919922,475.862427   C490.177887,473.203491 464.924316,476.087891 439.639557,480.211517   C422.598907,482.990631 406.309235,488.347626 390.555511,495.066864   C351.739807,511.622498 318.665039,536.248230 291.856598,568.811401   C268.513428,597.165466 251.779388,629.142334 242.142349,664.747437   C231.698349,703.333801 230.074661,742.243225 237.407761,781.499023   C243.023544,811.561829 253.792358,839.653076 269.501831,865.968445   C286.764984,894.886475 308.473389,919.441528 336.601624,938.245605   C344.211548,943.333008 351.126129,949.460571 358.992889,955.474060  z"/>
<path fill="#CA3601" opacity="1.000000" stroke="none" d=" M810.909180,458.053284   C801.092163,455.615570 791.104736,453.702393 781.508606,450.584717   C772.838135,447.767731 764.294617,444.201538 756.241760,439.934265   C746.689392,434.872437 737.429077,429.123505 728.580017,422.906860   C719.062195,416.220367 709.715759,409.140442 701.147461,401.300110   C694.540039,395.253998 689.031799,387.940582 683.436218,380.872864   C677.642883,373.555206 672.051208,366.041077 666.906189,358.259155   C663.146484,352.572418 659.930603,346.462769 657.052734,340.271820   C653.173035,331.925507 649.603027,323.412842 646.375305,314.793640   C644.163696,308.887970 642.695435,302.697327 641.019470,296.599854   C639.814392,292.215454 638.595520,287.814728 637.777222,283.348999   C636.657104,277.236115 635.466064,271.080994 635.101257,264.897003   C634.432251,253.554398 633.690613,242.146912 634.219177,230.824356   C634.653625,221.518784 636.369568,212.180130 638.439575,203.065552   C641.556519,189.340607 645.273621,175.739395 649.179626,162.213806   C650.377991,158.064178 652.844299,154.226227 655.051880,150.432892   C661.398682,139.526947 667.151672,128.163834 674.553467,118.012421   C683.313416,105.998268 692.995911,94.523956 703.338684,83.842087   C710.589294,76.353729 719.441345,70.347763 727.906616,64.126740   C733.899841,59.722424 740.151428,55.473461 746.803650,52.205410   C758.476196,46.470959 770.309998,40.890759 782.525024,36.492165   C791.447205,33.279263 801.334412,32.802162 810.356934,29.799742   C826.542908,24.413513 843.131348,24.663723 859.691650,25.182312   C869.474304,25.488661 879.166077,28.185831 888.960205,28.760656   C903.566284,29.617899 916.850159,35.262409 930.448303,39.508862   C939.852234,42.445538 949.095398,46.862038 957.376282,52.216614   C971.912781,61.616245 986.359009,71.414551 999.526917,82.595894   C1011.774353,92.995621 1022.381775,105.387840 1030.974854,119.162445   C1036.402344,127.862816 1040.681641,137.322205 1046.525391,145.709900   C1054.857544,157.669052 1057.953369,171.642807 1062.617065,184.923462   C1065.823608,194.054672 1066.927002,204.081207 1067.864502,213.814087   C1069.131470,226.967453 1069.718384,240.217682 1069.902466,253.436005   C1070.130493,269.803497 1067.499878,285.914276 1062.874390,301.577240   C1056.967896,321.578125 1049.527954,341.075165 1037.954590,358.537598   C1030.541748,369.722473 1022.241028,380.387634 1013.623291,390.687500   C1003.382263,402.927521 991.387817,413.436218 978.083618,422.315765   C971.336487,426.818939 964.580200,431.432404 957.366516,435.084259   C945.734802,440.972717 933.904785,446.566772 921.802917,451.393463   C914.166077,454.439362 905.882019,455.862183 897.024780,458.026367   C891.367920,458.276428 886.576782,458.578461 881.780762,458.737823   C866.737549,459.237671 851.692810,460.012939 836.648193,460.023041   C828.068909,460.028809 819.488892,458.752380 810.909180,458.053284  M700.515930,199.089279   C688.975952,240.591690 692.335083,280.976501 713.097595,318.621124   C741.397827,369.932495 785.534851,398.346527 844.309753,402.134430   C885.331970,404.778198 921.991150,392.065582 953.482544,365.877747   C980.236755,343.629333 997.917908,315.234802 1005.946533,281.178040   C1015.188721,241.973557 1011.004272,204.011688 991.547546,168.882355   C963.668030,118.545601 920.528992,89.931435 862.736572,85.696426   C814.000305,82.125053 772.546448,99.090797 738.379517,133.792496   C720.399353,152.054108 708.271423,173.888504 700.515930,199.089279  z"/>
<path fill="#92400E" opacity="1.000000" stroke="none" d=" M811.102478,458.339600   C819.488892,458.752380 828.068909,460.028809 836.648193,460.023041   C851.692810,460.012939 866.737549,459.237671 881.780762,458.737823   C886.576782,458.578461 891.367920,458.276428 896.631470,458.065918   C906.133606,465.408051 915.468872,472.384094 924.130066,480.115295   C938.993225,493.382507 954.215576,506.385742 967.854126,520.850891   C984.368286,538.366150 999.938232,556.854675 1014.871704,575.748169   C1024.831177,588.348572 1033.571777,602.034485 1041.735229,615.895752   C1048.942383,628.132935 1054.523315,641.321960 1060.951294,654.025391   C1069.617798,671.152710 1074.267578,689.636108 1077.636353,708.251953   C1081.060059,727.171082 1078.861328,745.861267 1071.343872,764.045288   C1066.985962,774.586975 1061.163208,783.786743 1052.996582,791.302917   C1040.717896,802.603760 1026.230225,809.516724 1009.470459,812.210388   C997.837463,814.080078 986.307312,814.377686 974.691284,813.648682   C968.168945,813.239380 961.668335,812.179810 955.218323,811.064087   C952.430908,810.581848 951.531738,811.288208 950.954712,813.989014   C948.826965,823.948792 946.510132,833.870544 944.100037,843.766541   C942.790649,849.143005 939.492432,852.809814 933.885803,853.966370   C926.782654,855.431519 920.586548,854.303650 915.940918,848.012207   C913.982910,845.360535 911.479980,843.107727 909.195618,840.701050   C897.308228,828.177429 885.473267,815.603027 873.495117,803.166687   C866.073792,795.461365 858.716003,787.656372 850.815491,780.460693   C840.304626,770.887573 845.880554,756.055054 856.398010,751.874573   C872.739380,745.379150 888.666321,737.849243 904.911133,731.100098   C918.834106,725.315613 932.809143,719.586609 947.043762,714.647522   C956.130737,711.494568 967.528564,720.343567 966.814026,730.025452   C965.995789,741.113953 963.770813,752.098572 962.057495,763.807983   C968.550964,767.313599 976.727356,767.056458 984.755676,767.108215   C990.096436,767.142761 995.451172,766.497192 1000.783936,765.990479   C1011.758362,764.947632 1020.925598,760.303162 1026.620605,750.742432   C1031.845459,741.971069 1033.007935,731.824890 1031.747925,721.973633   C1030.334595,710.923889 1028.371216,699.696899 1024.667358,689.248840   C1019.796448,675.508423 1013.796753,662.014282 1006.809570,649.218506   C998.882141,634.700928 989.786865,620.752075 980.326477,607.163574   C973.404846,597.221558 965.335144,588.030090 957.300903,578.924316   C948.112061,568.509888 938.804810,558.135803 928.808044,548.513977   C915.604309,535.805298 901.889709,523.601562 887.994751,511.645538   C878.317322,503.318512 868.297546,495.299377 857.829590,488.005371   C846.437683,480.067627 834.348328,473.131348 822.568481,465.749695   C818.801941,463.389404 815.052856,461.001282 811.102478,458.339600  z"/>
<path fill="#92400E" opacity="1.000000" stroke="none" d=" M163.061554,431.861359   C161.593597,433.800507 160.028976,435.674683 158.673798,437.689697   C151.451294,448.428864 146.576172,460.253601 142.973999,472.607483   C140.826660,479.971893 139.026535,487.439728 137.195145,494.891754   C136.904785,496.073242 137.275131,497.417114 137.373672,499.344116   C141.312012,498.105042 144.662781,496.600250 148.163483,496.050964   C153.960861,495.141388 159.992859,493.791748 165.676407,494.535309   C174.726578,495.719238 182.166733,508.991150 179.550690,517.858765   C173.780334,537.418335 167.824875,556.923157 162.022308,576.473328   C158.315384,588.962830 154.699112,601.479919 151.133636,614.010620   C148.930359,621.753967 147.429962,629.740601 144.672043,637.273193   C139.922363,650.245728 121.967781,657.844238 109.723419,647.475159   C100.862244,639.971130 90.931778,633.739258 81.579353,626.803589   C69.687996,617.985046 57.950672,608.958618 46.047440,600.156433   C38.159607,594.323486 29.933361,588.939087 22.169983,582.950195   C16.896168,578.881836 11.220662,574.795288 7.394336,569.508545   C0.703615,560.264099 6.132047,542.921570 17.704039,539.142090   C28.391453,535.651550 38.963024,531.807251 49.599163,528.158325   C53.168907,526.933655 56.780346,525.830627 59.336555,525.006226   C60.263023,506.519958 59.790066,488.347229 62.489368,470.658569   C64.729004,455.982056 68.688126,441.394135 74.584335,427.354828   C80.977676,412.131836 88.622581,397.677979 97.800377,384.151733   C103.414459,375.877655 111.096596,368.993317 117.957024,361.584015   C121.463417,357.797119 125.205505,354.228455 129.315369,350.365967   C131.045883,351.842468 132.708786,353.342834 133.496368,355.212006   C142.958435,377.667969 152.362335,400.149414 161.565781,422.712158   C162.703445,425.501221 162.593414,428.799194 163.061554,431.861359  z"/>
<path fill="#92400E" opacity="1.000000" stroke="none" d=" M745.006592,523.637512   C741.013550,520.123718 736.698730,516.508850 733.019165,512.334045   C720.204529,497.794434 705.803223,485.046265 690.451965,473.271820   C654.831665,445.950836 615.280762,426.830048 571.748840,415.923767   C552.348083,411.063232 532.767212,407.383270 512.691162,406.887390   C510.044678,406.822052 507.409943,406.281189 504.332764,405.935059   C498.296814,403.282593 492.814911,400.360535 487.077057,398.083496   C469.365784,391.054993 451.848389,383.337494 433.697174,377.679230   C418.121948,372.823944 401.609222,371.057343 385.822388,366.776794   C369.906738,362.461365 353.660980,362.764374 337.533691,361.271362   C337.273682,361.247284 336.979004,361.597839 336.243195,361.609192   C334.252808,359.789154 332.105530,358.392517 331.281342,356.437958   C322.713074,336.118164 314.329590,315.720032 306.011627,295.296082   C305.502167,294.045135 305.978394,292.392792 305.996002,290.927216   C313.489014,290.951721 321.008545,290.582367 328.469360,291.084869   C342.808105,292.050629 357.298859,292.475464 371.391235,294.997925   C394.969452,299.218262 418.487366,304.138672 441.641937,310.239807   C458.152740,314.590424 474.136810,321.068542 490.147400,327.146606   C501.872345,331.597687 513.385559,336.668854 524.755493,341.973083   C533.783020,346.184540 542.535339,351.014954 551.256165,355.847778   C561.876648,361.733307 572.448792,367.723511 582.829895,374.017944   C591.263245,379.131439 599.452209,384.659790 607.622375,390.191986   C614.564453,394.892639 621.530884,399.599548 628.115723,404.775452   C637.114868,411.849091 645.818848,419.303467 654.544556,426.717957   C662.945374,433.856354 671.476685,440.873657 679.466125,448.454742   C687.783081,456.346405 695.861572,464.548462 703.435852,473.150604   C716.712341,488.228821 729.539612,503.703125 742.501404,519.056824   C743.538513,520.285339 744.160950,521.863831 745.006592,523.637512  z"/>
<path fill="#FFCA28" opacity="1.000000" stroke="none" d=" M305.991333,290.552002   C305.978394,292.392792 305.502167,294.045135 306.011627,295.296082   C314.329590,315.720032 322.713074,336.118164 331.281342,356.437958   C332.105530,358.392517 334.252808,359.789154 335.966003,361.748352   C336.020020,376.690887 325.401123,385.718079 314.721771,390.044189   C297.886536,396.863922 281.205017,404.063385 264.462982,411.112823   C260.769897,412.667847 257.126556,414.344971 253.407181,415.833038   C238.603088,421.756042 223.760925,427.584290 208.971329,433.543091   C204.668228,435.276825 200.558731,437.496918 196.237320,439.177277   C193.118668,440.389923 189.847519,441.376373 186.554810,441.944122   C176.900070,443.608856 169.319626,440.083832 163.374695,432.014465   C162.593414,428.799194 162.703445,425.501221 161.565781,422.712158   C152.362335,400.149414 142.958435,377.667969 133.496368,355.212006   C132.708786,353.342834 131.045883,351.842468 129.466354,350.058716   C125.621025,341.316132 122.339096,332.577271 118.508804,324.085815   C114.752022,315.757294 118.332550,303.838989 125.248047,297.756256   C132.686478,291.213562 142.117966,289.859375 150.534378,285.980621   C166.152054,278.783112 182.089844,272.276917 197.929993,265.567017   C204.892670,262.617645 211.939377,259.866180 218.953918,257.039764   C232.585739,251.547012 246.322189,246.297394 259.811462,240.474823   C266.056000,237.779404 272.184937,238.382294 277.813812,240.616806   C284.397766,243.230469 288.993500,248.002243 291.501740,255.517395   C295.455170,267.362518 301.073242,278.652069 305.991333,290.552002  M253.868774,284.796967   C226.034012,296.385559 198.222122,308.029785 170.338104,319.498627   C166.469666,321.089722 165.282135,322.705780 167.079117,326.908722   C175.461395,346.514038 183.529877,366.253418 191.735977,385.934265   C193.193893,389.430817 194.772141,392.877228 196.310287,396.381989   C197.388214,396.171661 198.068192,396.152039 198.655029,395.908234   C226.806473,384.211884 254.937469,372.466125 283.111542,360.824646   C286.256989,359.524994 286.946686,358.098358 285.554718,354.802460   C276.157074,332.550934 266.993469,310.200684 257.645264,287.928070   C257.095825,286.619019 255.600876,285.706818 253.868774,284.796967  z"/>
<path fill="#92400E" opacity="1.000000" stroke="none" d=" M745.795288,524.812744   C745.535034,524.889648 745.326294,524.665283 745.085083,524.179626   C745.269592,524.160461 745.534241,524.358215 745.795288,524.812744  z"/>
<path fill="#FDF1C4" opacity="1.000000" stroke="none" d=" M358.676392,955.292358   C351.126129,949.460571 344.211548,943.333008 336.601624,938.245605   C308.473389,919.441528 286.764984,894.886475 269.501831,865.968445   C253.792358,839.653076 243.023544,811.561829 237.407761,781.499023   C230.074661,742.243225 231.698349,703.333801 242.142349,664.747437   C251.779388,629.142334 268.513428,597.165466 291.856598,568.811401   C318.665039,536.248230 351.739807,511.622498 390.555511,495.066864   C406.309235,488.347626 422.598907,482.990631 439.639557,480.211517   C464.924316,476.087891 490.177887,473.203491 515.919922,475.862427   C557.009583,480.106567 595.117371,492.628723 629.997620,514.822083   C665.941956,537.692383 694.581543,567.597229 715.882202,604.467651   C733.080383,634.236877 743.719421,666.222534 748.113403,700.357178   C751.785461,728.883545 750.909973,757.283875 745.111023,785.337402   C737.291016,823.167480 721.789856,857.691528 698.422729,888.669861   C675.908020,918.518066 648.332520,942.463806 615.674744,960.436462   C588.003540,975.664856 558.416199,985.548645 527.021423,989.609863   C474.779968,996.367676 424.789917,988.941772 377.454956,965.374207   C371.206787,962.263306 365.142395,958.783203 358.676392,955.292358  M662.730591,601.798950   C644.568176,578.964172 622.879639,560.126221 597.264587,546.230896   C551.233948,521.260803 502.157562,513.177490 450.772491,523.459839   C401.084473,533.402588 359.555450,558.116577 326.947510,597.047852   C301.494263,627.437012 285.705780,662.370056 279.148224,701.584717   C273.163147,737.375732 276.252167,772.383728 287.890320,806.502991   C304.088348,853.990540 333.545258,891.474976 375.492554,919.086182   C411.428650,942.740662 451.541748,952.660034 493.933228,954.735291   C499.797302,955.022400 505.756134,953.546387 511.660217,952.800476   C519.583557,951.799377 527.599304,951.207886 535.396179,949.581543   C572.291504,941.885620 605.258423,925.998352 633.880249,901.350220   C654.819702,883.317932 671.743286,862.031982 684.572754,837.584778   C696.594299,814.677063 703.901367,790.294189 707.634216,764.648438   C711.362488,739.034485 709.616577,713.781738 704.108948,688.768066   C697.094971,656.913086 683.206482,628.137512 662.730591,601.798950  z"/>
<path fill="#FEF2C5" opacity="1.000000" stroke="none" d=" M700.600586,198.695114   C708.271423,173.888504 720.399353,152.054108 738.379517,133.792496   C772.546448,99.090797 814.000305,82.125053 862.736572,85.696426   C920.528992,89.931435 963.668030,118.545601 991.547546,168.882355   C1011.004272,204.011688 1015.188721,241.973557 1005.946533,281.178040   C997.917908,315.234802 980.236755,343.629333 953.482544,365.877747   C921.991150,392.065582 885.331970,404.778198 844.309753,402.134430   C785.534851,398.346527 741.397827,369.932495 713.097595,318.621124   C692.335083,280.976501 688.975952,240.591690 700.600586,198.695114  z"/>
<path fill="#FEF2C3" opacity="1.000000" stroke="none" d=" M254.207352,284.703461   C255.600876,285.706818 257.095825,286.619019 257.645264,287.928070   C266.993469,310.200684 276.157074,332.550934 285.554718,354.802460   C286.946686,358.098358 286.256989,359.524994 283.111542,360.824646   C254.937469,372.466125 226.806473,384.211884 198.655029,395.908234   C198.068192,396.152039 197.388214,396.171661 196.310287,396.381989   C194.772141,392.877228 193.193893,389.430817 191.735977,385.934265   C183.529877,366.253418 175.461395,346.514038 167.079117,326.908722   C165.282135,322.705780 166.469666,321.089722 170.338104,319.498627   C198.222122,308.029785 226.034012,296.385559 254.207352,284.703461  z"/>
<path fill="#CA3702" opacity="1.000000" stroke="none" d=" M662.942261,602.086121   C683.206482,628.137512 697.094971,656.913086 704.108948,688.768066   C709.616577,713.781738 711.362488,739.034485 707.634216,764.648438   C703.901367,790.294189 696.594299,814.677063 684.572754,837.584778   C671.743286,862.031982 654.819702,883.317932 633.880249,901.350220   C605.258423,925.998352 572.291504,941.885620 535.396179,949.581543   C527.599304,951.207886 519.583557,951.799377 511.660217,952.800476   C505.756134,953.546387 499.797302,955.022400 493.933228,954.735291   C451.541748,952.660034 411.428650,942.740662 375.492554,919.086182   C333.545258,891.474976 304.088348,853.990540 287.890320,806.502991   C276.252167,772.383728 273.163147,737.375732 279.148224,701.584717   C285.705780,662.370056 301.494263,627.437012 326.947510,597.047852   C359.555450,558.116577 401.084473,533.402588 450.772491,523.459839   C502.157562,513.177490 551.233948,521.260803 597.264587,546.230896   C622.879639,560.126221 644.568176,578.964172 662.942261,602.086121  M412.949066,873.562622   C453.800812,896.887451 497.197479,902.544434 541.521912,887.358276   C603.210327,866.222961 640.423462,822.037476 649.235107,757.500854   C657.527893,696.764160 635.515747,646.349304 586.641663,609.044006   C549.830566,580.946289 507.602386,572.350891 462.314117,580.781860   C433.231018,586.196045 407.340485,599.119080 385.968536,619.827759   C338.698822,665.630615 324.089783,720.914856 342.049408,783.791138   C353.127533,822.575439 377.657501,852.216919 412.949066,873.562622  z"/>
<path fill="#FEF2C5" opacity="1.000000" stroke="none" d=" M412.643921,873.362549   C377.657501,852.216919 353.127533,822.575439 342.049408,783.791138   C324.089783,720.914856 338.698822,665.630615 385.968536,619.827759   C407.340485,599.119080 433.231018,586.196045 462.314117,580.781860   C507.602386,572.350891 549.830566,580.946289 586.641663,609.044006   C635.515747,646.349304 657.527893,696.764160 649.235107,757.500854   C640.423462,822.037476 603.210327,866.222961 541.521912,887.358276   C497.197479,902.544434 453.800812,896.887451 412.643921,873.362549  z"/>
</svg>